Coordinates
version=1
nRows=7
nColumns=40
inDegrees=yes

Units are S.I. units (second, meters, Newtons, ...)
Angles are in degrees.

endheader
time	pelvis_tilt	pelvis_list	pelvis_rotation	pelvis_tx	pelvis_ty	pelvis_tz	hip_flexion_r	hip_adduction_r	hip_rotation_r	knee_angle_r	knee_angle_r_beta	ankle_angle_r	subtalar_angle_r	mtp_angle_r	hip_flexion_l	hip_adduction_l	hip_rotation_l	knee_angle_l	knee_angle_l_beta	ankle_angle_l	subtalar_angle_l	mtp_angle_l	lumbar_extension	lumbar_bending	lumbar_rotation	arm_flex_r	arm_add_r	arm_rot_r	elbow_flex_r	pro_sup_r	wrist_flex_r	wrist_dev_r	arm_flex_l	arm_add_l	arm_rot_l	elbow_flex_l	pro_sup_l	wrist_flex_l	wrist_dev_l
     19.51500000	     -0.49881173	     -5.96702617	     -5.17650177	      0.97619082	      0.90517818	      0.57193727	     14.93047860	      8.43476252	     -5.69908956	     34.85206099	     34.85206099	     21.12799275	     -8.76187539	      0.87266801	     23.43918091	    -18.60821835	      1.86554655	     69.99736159	     69.99736159	     21.02974254	    -19.72862666	     25.36464988	    -11.69470612	      8.75046970	     -0.36670758	     28.94209084	    -14.04070161	    -11.18239884	     48.74296699	     45.67547940	      0.00000000	      0.00000000	      5.52927127	     -8.05708694	      6.31258356	     29.74262566	     45.92517865	      0.00000000	      0.00000000
     19.53457143	     -0.08511256	     -5.95642177	     -4.30239293	      0.97464762	      0.90352882	      0.57124788	     14.62933543	      8.34364629	     -5.98189578	     35.61073492	     35.61073492	     21.65607827	     -9.56025202	      0.76390956	     24.58378585	    -18.35272428	      1.94945457	     67.75827364	     67.75827364	     21.16833647	    -19.72398359	     25.28135129	    -11.93024888	      8.55846778	      0.06227937	     30.79518714	    -14.52151220	    -11.08600014	     50.33700863	     45.62345602	      0.00000000	      0.00000000	      3.43115182	     -7.55225764	      6.47794132	     28.53322984	     45.86674147	      0.00000000	      0.00000000
     19.55414286	      0.22833678	     -5.87729035	     -3.37803750	      0.97288243	      0.90237061	      0.57031333	     14.33134197	      8.21329924	     -6.22922321	     36.15174928	     36.15174928	     22.27892092	    -10.40376482	      1.39091908	     25.76121618	    -17.89258597	      1.99938467	     65.25366193	     65.25366193	     21.14233734	    -19.71278881	     25.15316674	    -12.16699073	      8.34515818	      0.61250836	     31.08999171	    -15.64769845	     -9.17324604	     56.28110853	     45.33651226	      0.00000000	      0.00000000	      2.03851806	     -7.12194762	      6.65304370	     25.88854141	     45.82786649	      0.00000000	      0.00000000
     19.57371429	      0.49077697	     -5.72524018	     -2.48082034	      0.97090046	      0.90187197	      0.56914994	     13.90685328	      7.95873253	     -6.59573334	     36.32991742	     36.32991742	     22.61296504	    -10.96713800	      1.34867281	     26.83580929	    -17.23579075	      1.99424277	     62.50963675	     62.50963675	     20.95008738	    -19.69261991	     24.90506158	    -12.30212621	      8.01899084	      0.73757990	     33.13676885	    -15.77738150	     -9.24789300	     58.07970640	     45.28955663	      0.00000000	      0.00000000	     -0.03966466	     -7.10677632	      6.68607208	     25.02986432	     45.78394844	      0.00000000	      0.00000000
     19.59328571	      0.63158609	     -5.59050119	     -1.54580306	      0.96875906	      0.90195778	      0.56773697	     13.41716799	      7.71481263	     -7.05811376	     36.12413616	     36.12413616	     22.80697964	    -11.36651835	      1.34055780	     27.90351104	    -16.45887622	      2.09481488	     59.58294492	     59.58294492	     20.51536089	    -19.65888709	     24.35955460	    -12.34576608	      7.73496212	      0.85008649	     34.97206846	    -16.07402031	     -9.08375856	     60.55230484	     45.21157368	      0.00000000	      0.00000000	     -2.06641042	     -7.21628572	      6.61527724	     24.55172680	     45.75584721	      0.00000000	      0.00000000
     19.61285714	      0.75777318	     -5.35023412	     -0.65481787	      0.96657913	      0.90282096	      0.56607859	     12.76774498	      7.35641585	     -7.50303878	     35.60851597	     35.60851597	     22.92787794	    -11.64685328	      1.33742319	     28.72756722	    -15.44964974	      2.22745477	     56.44575319	     56.44575319	     20.00231563	    -19.60873449	     23.86207635	    -12.39064154	      7.31900854	      1.17145150	     36.80512091	    -16.51407701	     -8.95664820	     62.57770785	     45.15033132	      0.00000000	      0.00000000	     -3.85010334	     -7.45709855	      6.52077580	     24.22934238	     45.73596113	      0.00000000	      0.00000000
     19.63242857	      0.57221757	     -5.12692820	      0.29835900	      0.96417549	      0.90389489	      0.56404233	     12.33136617	      7.01041786	     -8.02264339	     34.82851775	     34.82851775	     22.93992781	    -11.88831132	      1.44999965	     29.77459331	    -14.29018878	      2.63099183	     53.26928616	     53.26928616	     19.45172205	    -19.52533157	     23.79294994	    -12.07954224	      6.94365536	      1.65847013	     38.74167106	    -17.26281708	     -9.07202314	     63.76719002	     45.12532275	      0.00000000	      0.00000000	     -5.30477504	     -7.71390277	      6.45187049	     23.87234059	     45.71943062	      0.00000000	      0.00000000
